<svg width="80" height="14" viewBox="0 0 80 14" fill="none" xmlns="http://www.w3.org/2000/svg">
<path d="M-5.84126e-06 13.6797V0.379687H8.09399V1.69069H1.59599V6.36469H7.12499V7.65669H1.59599V13.6797H-5.84126e-06ZM11.9885 13.9077C11.2032 13.9077 10.5509 13.7747 10.0315 13.5087C9.52488 13.2427 9.14488 12.888 8.89155 12.4447C8.63822 11.9887 8.51155 11.501 8.51155 10.9817C8.51155 10.3357 8.67622 9.79102 9.00555 9.34769C9.34755 8.89169 9.82255 8.54969 10.4305 8.32169C11.0512 8.08102 11.7732 7.96069 12.5965 7.96069H15.1425C15.1425 7.36535 15.0475 6.87769 14.8575 6.49769C14.6802 6.10502 14.4142 5.80735 14.0595 5.60469C13.7049 5.40202 13.2742 5.30069 12.7675 5.30069C12.1595 5.30069 11.6275 5.45902 11.1715 5.77569C10.7282 6.07969 10.4559 6.52302 10.3545 7.10569H8.72055C8.79655 6.43435 9.02455 5.86435 9.40455 5.39569C9.79722 4.92702 10.2912 4.57235 10.8865 4.33169C11.4819 4.07835 12.1089 3.95169 12.7675 3.95169C13.6415 3.95169 14.3699 4.11635 14.9525 4.44569C15.5479 4.76235 15.9912 5.21202 16.2825 5.79469C16.5865 6.36469 16.7385 7.03602 16.7385 7.80869V13.6797H15.3135L15.2185 11.9887C15.0919 12.2547 14.9272 12.508 14.7245 12.7487C14.5345 12.9767 14.3065 13.1794 14.0405 13.3567C13.7872 13.5214 13.4895 13.6544 13.1475 13.7557C12.8055 13.857 12.4192 13.9077 11.9885 13.9077ZM12.2355 12.5587C12.6915 12.5587 13.0969 12.47 13.4515 12.2927C13.8189 12.1027 14.1292 11.8494 14.3825 11.5327C14.6359 11.216 14.8259 10.8614 14.9525 10.4687C15.0792 10.0634 15.1425 9.65169 15.1425 9.23369V9.19569H12.7295C12.1215 9.19569 11.6275 9.27169 11.2475 9.42369C10.8675 9.56302 10.5952 9.76569 10.4305 10.0317C10.2659 10.285 10.1835 10.5764 10.1835 10.9057C10.1835 11.235 10.2595 11.5264 10.4115 11.7797C10.5762 12.033 10.8105 12.2294 11.1145 12.3687C11.4185 12.4954 11.7922 12.5587 12.2355 12.5587ZM22.932 13.9077C22.0326 13.9077 21.222 13.6987 20.5 13.2807C19.7906 12.8627 19.227 12.28 18.809 11.5327C18.4036 10.7854 18.201 9.91769 18.201 8.92969C18.201 7.92902 18.4036 7.06135 18.809 6.32669C19.227 5.57935 19.7906 4.99669 20.5 4.57869C21.222 4.16069 22.0326 3.95169 22.932 3.95169C24.0593 3.95169 25.003 4.24935 25.763 4.84469C26.523 5.42735 27.0106 6.20635 27.226 7.18169H25.592C25.4526 6.59902 25.136 6.14302 24.642 5.81369C24.148 5.48435 23.5716 5.31969 22.913 5.31969C22.381 5.31969 21.8806 5.45902 21.412 5.73769C20.9433 6.00369 20.5633 6.40269 20.272 6.93469C19.9806 7.46669 19.835 8.13169 19.835 8.92969C19.835 9.52502 19.9173 10.0507 20.082 10.5067C20.2593 10.95 20.4873 11.33 20.766 11.6467C21.0573 11.9507 21.3866 12.1787 21.754 12.3307C22.134 12.4827 22.5203 12.5587 22.913 12.5587C23.3563 12.5587 23.7616 12.489 24.129 12.3497C24.4963 12.1977 24.8066 11.9824 25.06 11.7037C25.326 11.4124 25.5033 11.0704 25.592 10.6777H27.226C27.0233 11.6404 26.5356 12.4194 25.763 13.0147C25.003 13.61 24.0593 13.9077 22.932 13.9077ZM33.1214 13.9077C32.2221 13.9077 31.4241 13.705 30.7274 13.2997C30.0308 12.8817 29.4798 12.299 29.0744 11.5517C28.6818 10.8044 28.4854 9.93035 28.4854 8.92969C28.4854 7.92902 28.6818 7.06135 29.0744 6.32669C29.4671 5.57935 30.0118 4.99669 30.7084 4.57869C31.4178 4.16069 32.2348 3.95169 33.1594 3.95169C34.0841 3.95169 34.8758 4.16069 35.5344 4.57869C36.1931 4.99669 36.6934 5.54135 37.0354 6.21269C37.3901 6.88402 37.5674 7.61235 37.5674 8.39769C37.5674 8.52435 37.5674 8.66369 37.5674 8.81569C37.5674 8.95502 37.5611 9.11335 37.5484 9.29069H29.6824V8.05569H35.9904C35.9651 7.19435 35.6801 6.52302 35.1354 6.04169C34.6034 5.54769 33.9321 5.30069 33.1214 5.30069C32.5768 5.30069 32.0701 5.42735 31.6014 5.68069C31.1328 5.92135 30.7528 6.27602 30.4614 6.74469C30.1828 7.20069 30.0434 7.78335 30.0434 8.49269V9.02469C30.0434 9.81002 30.1891 10.4687 30.4804 11.0007C30.7718 11.52 31.1518 11.9127 31.6204 12.1787C32.0891 12.432 32.5894 12.5587 33.1214 12.5587C33.7801 12.5587 34.3248 12.413 34.7554 12.1217C35.1988 11.8177 35.5218 11.406 35.7244 10.8867H37.3014C37.1368 11.4567 36.8644 11.9697 36.4844 12.4257C36.1171 12.8817 35.6484 13.2427 35.0784 13.5087C34.5211 13.7747 33.8688 13.9077 33.1214 13.9077ZM44.1668 13.9077C43.6348 13.9077 43.1472 13.8317 42.7038 13.6797C42.2732 13.5277 41.8868 13.3187 41.5448 13.0527C41.2155 12.7867 40.9432 12.47 40.7278 12.1027L40.5758 13.6797H39.1318V-0.000313044H40.7278V5.73769C41.0318 5.26902 41.4688 4.85735 42.0388 4.50269C42.6088 4.13535 43.3245 3.95169 44.1858 3.95169C45.1105 3.95169 45.9212 4.16702 46.6178 4.59769C47.3145 5.02835 47.8528 5.62369 48.2328 6.38369C48.6255 7.13102 48.8218 7.98602 48.8218 8.94869C48.8218 9.89869 48.6255 10.7474 48.2328 11.4947C47.8528 12.242 47.3145 12.831 46.6178 13.2617C45.9212 13.6924 45.1042 13.9077 44.1668 13.9077ZM43.9958 12.5207C44.6165 12.5207 45.1675 12.375 45.6488 12.0837C46.1428 11.7797 46.5228 11.3617 46.7888 10.8297C47.0675 10.285 47.2068 9.65169 47.2068 8.92969C47.2068 8.20769 47.0675 7.58069 46.7888 7.04869C46.5228 6.50402 46.1428 6.08602 45.6488 5.79469C45.1675 5.49069 44.6165 5.33869 43.9958 5.33869C43.3625 5.33869 42.7988 5.49069 42.3048 5.79469C41.8235 6.08602 41.4435 6.50402 41.1648 7.04869C40.8988 7.58069 40.7658 8.20769 40.7658 8.92969C40.7658 9.65169 40.8988 10.285 41.1648 10.8297C41.4435 11.3617 41.8235 11.7797 42.3048 12.0837C42.7988 12.375 43.3625 12.5207 43.9958 12.5207ZM54.7679 13.9077C53.8813 13.9077 53.0833 13.705 52.3739 13.2997C51.6646 12.8817 51.1009 12.299 50.6829 11.5517C50.2776 10.8044 50.0749 9.93035 50.0749 8.92969C50.0749 7.91635 50.2839 7.04235 50.7019 6.30769C51.1199 5.56035 51.6836 4.98402 52.3929 4.57869C53.1149 4.16069 53.9193 3.95169 54.8059 3.95169C55.7053 3.95169 56.5096 4.16069 57.2189 4.57869C57.9283 4.98402 58.4856 5.56035 58.8909 6.30769C59.2963 7.04235 59.4989 7.91635 59.4989 8.92969C59.4989 9.94302 59.2899 10.8234 58.8719 11.5707C58.4666 12.3054 57.9029 12.8817 57.1809 13.2997C56.4716 13.705 55.6673 13.9077 54.7679 13.9077ZM54.7679 12.5397C55.3253 12.5397 55.8383 12.4067 56.3069 12.1407C56.7756 11.8747 57.1493 11.4757 57.4279 10.9437C57.7193 10.399 57.8649 9.72769 57.8649 8.92969C57.8649 8.11902 57.7256 7.45402 57.4469 6.93469C57.1683 6.40269 56.7946 6.00369 56.3259 5.73769C55.8573 5.45902 55.3506 5.31969 54.8059 5.31969C54.2739 5.31969 53.7673 5.45902 53.2859 5.73769C52.8173 6.00369 52.4373 6.40269 52.1459 6.93469C51.8546 7.46669 51.7089 8.13169 51.7089 8.92969C51.7089 9.72769 51.8546 10.399 52.1459 10.9437C52.4373 11.4757 52.8109 11.8747 53.2669 12.1407C53.7356 12.4067 54.2359 12.5397 54.7679 12.5397ZM65.4606 13.9077C64.574 13.9077 63.776 13.705 63.0666 13.2997C62.3573 12.8817 61.7936 12.299 61.3756 11.5517C60.9703 10.8044 60.7676 9.93035 60.7676 8.92969C60.7676 7.91635 60.9766 7.04235 61.3946 6.30769C61.8126 5.56035 62.3763 4.98402 63.0856 4.57869C63.8076 4.16069 64.612 3.95169 65.4986 3.95169C66.398 3.95169 67.2023 4.16069 67.9116 4.57869C68.621 4.98402 69.1783 5.56035 69.5836 6.30769C69.989 7.04235 70.1916 7.91635 70.1916 8.92969C70.1916 9.94302 69.9826 10.8234 69.5646 11.5707C69.1593 12.3054 68.5956 12.8817 67.8736 13.2997C67.1643 13.705 66.36 13.9077 65.4606 13.9077ZM65.4606 12.5397C66.018 12.5397 66.531 12.4067 66.9996 12.1407C67.4683 11.8747 67.842 11.4757 68.1206 10.9437C68.412 10.399 68.5576 9.72769 68.5576 8.92969C68.5576 8.11902 68.4183 7.45402 68.1396 6.93469C67.861 6.40269 67.4873 6.00369 67.0186 5.73769C66.55 5.45902 66.0433 5.31969 65.4986 5.31969C64.9666 5.31969 64.46 5.45902 63.9786 5.73769C63.51 6.00369 63.13 6.40269 62.8386 6.93469C62.5473 7.46669 62.4016 8.13169 62.4016 8.92969C62.4016 9.72769 62.5473 10.399 62.8386 10.9437C63.13 11.4757 63.5036 11.8747 63.9596 12.1407C64.4283 12.4067 64.9286 12.5397 65.4606 12.5397ZM77.7683 13.6797L73.1893 8.47369L77.3313 4.17969H79.2883L74.5383 9.04369L74.5573 7.90369L79.8013 13.6797H77.7683ZM71.8593 13.6797V-0.000313044H73.4553V13.6797H71.8593Z" fill="#416FF0"/>
</svg>
