<svg width="80" height="18" viewBox="0 0 80 18" fill="none" xmlns="http://www.w3.org/2000/svg">
<path d="M-5.84126e-06 13.2998V-0.000196218H1.59599V13.2998H-5.84126e-06ZM3.76956 13.2998V3.7998H5.21356L5.30856 5.4718C5.61256 4.88914 6.04956 4.4268 6.61956 4.0848C7.18956 3.7428 7.83556 3.5718 8.55756 3.5718C9.3049 3.5718 9.9509 3.7238 10.4956 4.0278C11.0402 4.31914 11.4646 4.7688 11.7686 5.3768C12.0726 5.9848 12.2246 6.75114 12.2246 7.6758V13.2998H10.6286V7.8468C10.6286 6.88414 10.4132 6.16214 9.98257 5.6808C9.56456 5.1868 8.96923 4.9398 8.19656 4.9398C7.6519 4.9398 7.16423 5.0728 6.73356 5.3388C6.31556 5.6048 5.9799 5.9848 5.72656 6.4788C5.4859 6.9728 5.36556 7.5808 5.36556 8.3028V13.2998H3.76956ZM17.7012 13.5278C16.9412 13.5278 16.2635 13.4011 15.6682 13.1478C15.0728 12.8818 14.5978 12.5081 14.2432 12.0268C13.8885 11.5455 13.6668 10.9818 13.5782 10.3358H15.2122C15.2882 10.6778 15.4275 10.9881 15.6302 11.2668C15.8455 11.5455 16.1242 11.7671 16.4662 11.9318C16.8208 12.0965 17.2388 12.1788 17.7202 12.1788C18.1762 12.1788 18.5435 12.1155 18.8222 11.9888C19.1135 11.8495 19.3288 11.6721 19.4682 11.4568C19.6202 11.2288 19.6962 10.9818 19.6962 10.7158C19.6962 10.3358 19.6012 10.0445 19.4112 9.8418C19.2338 9.63914 18.9678 9.4808 18.6132 9.3668C18.2585 9.2528 17.8342 9.14514 17.3402 9.0438C16.9348 8.9678 16.5295 8.86647 16.1242 8.7398C15.7315 8.61314 15.3768 8.44847 15.0602 8.2458C14.7435 8.04314 14.4902 7.7898 14.3002 7.4858C14.1102 7.1818 14.0152 6.81447 14.0152 6.3838C14.0152 5.83914 14.1545 5.3578 14.4332 4.9398C14.7118 4.50914 15.1045 4.17347 15.6112 3.9328C16.1305 3.69214 16.7448 3.5718 17.4542 3.5718C18.4548 3.5718 19.2718 3.8188 19.9052 4.3128C20.5512 4.8068 20.9248 5.52247 21.0262 6.4598H19.4492C19.3985 5.97847 19.1958 5.6048 18.8412 5.3388C18.4992 5.06014 18.0305 4.9208 17.4352 4.9208C16.8398 4.9208 16.3902 5.04114 16.0862 5.2818C15.7822 5.52247 15.6302 5.83914 15.6302 6.2318C15.6302 6.48514 15.7125 6.7068 15.8772 6.8968C16.0545 7.0868 16.3078 7.24514 16.6372 7.3718C16.9792 7.49847 17.3908 7.61247 17.8722 7.7138C18.4802 7.84047 19.0438 7.9988 19.5632 8.1888C20.0825 8.36614 20.5068 8.63847 20.8362 9.0058C21.1655 9.37314 21.3302 9.8988 21.3302 10.5828C21.3428 11.1655 21.1972 11.6785 20.8932 12.1218C20.5892 12.5651 20.1648 12.9135 19.6202 13.1668C19.0882 13.4075 18.4485 13.5278 17.7012 13.5278ZM26.356 13.2998C25.786 13.2998 25.292 13.2111 24.874 13.0338C24.456 12.8565 24.133 12.5588 23.905 12.1408C23.6896 11.7101 23.582 11.1338 23.582 10.4118V5.1488H21.948V3.7998H23.582L23.791 1.5198H25.178V3.7998H27.971V5.1488H25.178V10.4118C25.178 11.0071 25.2983 11.4125 25.539 11.6278C25.7796 11.8305 26.204 11.9318 26.812 11.9318H27.819V13.2998H26.356ZM32.5627 13.5278C31.7774 13.5278 31.1251 13.3948 30.6057 13.1288C30.0991 12.8628 29.7191 12.5081 29.4657 12.0648C29.2124 11.6088 29.0857 11.1211 29.0857 10.6018C29.0857 9.9558 29.2504 9.41114 29.5797 8.9678C29.9217 8.5118 30.3967 8.1698 31.0047 7.9418C31.6254 7.70114 32.3474 7.5808 33.1707 7.5808H35.7167C35.7167 6.98547 35.6217 6.4978 35.4317 6.1178C35.2544 5.72514 34.9884 5.42747 34.6337 5.2248C34.2791 5.02214 33.8484 4.9208 33.3417 4.9208C32.7337 4.9208 32.2017 5.07914 31.7457 5.3958C31.3024 5.6998 31.0301 6.14314 30.9287 6.7258H29.2947C29.3707 6.05447 29.5987 5.48447 29.9787 5.0158C30.3714 4.54714 30.8654 4.19247 31.4607 3.9518C32.0561 3.69847 32.6831 3.5718 33.3417 3.5718C34.2157 3.5718 34.9441 3.73647 35.5267 4.0658C36.1221 4.38247 36.5654 4.83214 36.8567 5.4148C37.1607 5.9848 37.3127 6.65614 37.3127 7.4288V13.2998H35.8877L35.7927 11.6088C35.6661 11.8748 35.5014 12.1281 35.2987 12.3688C35.1087 12.5968 34.8807 12.7995 34.6147 12.9768C34.3614 13.1415 34.0637 13.2745 33.7217 13.3758C33.3797 13.4771 32.9934 13.5278 32.5627 13.5278ZM32.8097 12.1788C33.2657 12.1788 33.6711 12.0901 34.0257 11.9128C34.3931 11.7228 34.7034 11.4695 34.9567 11.1528C35.2101 10.8361 35.4001 10.4815 35.5267 10.0888C35.6534 9.68347 35.7167 9.2718 35.7167 8.8538V8.8158H33.3037C32.6957 8.8158 32.2017 8.8918 31.8217 9.0438C31.4417 9.18314 31.1694 9.3858 31.0047 9.6518C30.8401 9.90514 30.7577 10.1965 30.7577 10.5258C30.7577 10.8551 30.8337 11.1465 30.9857 11.3998C31.1504 11.6531 31.3847 11.8495 31.6887 11.9888C31.9927 12.1155 32.3664 12.1788 32.8097 12.1788ZM42.9361 17.7078C42.0875 17.7078 41.3338 17.5938 40.6751 17.3658C40.0165 17.1505 39.4971 16.8148 39.1171 16.3588C38.7498 15.9028 38.5661 15.3391 38.5661 14.6678C38.5661 14.3891 38.6231 14.0851 38.7371 13.7558C38.8638 13.4265 39.0728 13.1035 39.3641 12.7868C39.6681 12.4701 40.0925 12.1851 40.6371 11.9318L41.7201 12.5778C41.0741 12.8565 40.6435 13.1731 40.4281 13.5278C40.2255 13.8825 40.1241 14.2118 40.1241 14.5158C40.1241 14.9338 40.2445 15.2821 40.4851 15.5608C40.7385 15.8395 41.0741 16.0485 41.4921 16.1878C41.9228 16.3271 42.4041 16.3968 42.9361 16.3968C43.4808 16.3968 43.9431 16.3145 44.3231 16.1498C44.7158 15.9978 45.0198 15.7825 45.2351 15.5038C45.4505 15.2251 45.5581 14.8958 45.5581 14.5158C45.5581 14.0978 45.3935 13.7368 45.0641 13.4328C44.7475 13.1415 44.1331 12.9705 43.2211 12.9198C42.4738 12.8691 41.8468 12.7995 41.3401 12.7108C40.8461 12.6221 40.4281 12.5208 40.0861 12.4068C39.7568 12.2801 39.4781 12.1408 39.2501 11.9888C39.0348 11.8368 38.8385 11.6785 38.6611 11.5138V11.0768L40.5231 9.2338L41.8911 9.7278L39.9911 11.4568L40.2381 10.8108C40.3775 10.9121 40.5105 11.0071 40.6371 11.0958C40.7638 11.1718 40.9348 11.2415 41.1501 11.3048C41.3781 11.3681 41.6821 11.4251 42.0621 11.4758C42.4421 11.5265 42.9488 11.5771 43.5821 11.6278C44.4435 11.6911 45.1338 11.8431 45.6531 12.0838C46.1725 12.3245 46.5461 12.6475 46.7741 13.0528C47.0148 13.4581 47.1351 13.9268 47.1351 14.4588C47.1351 15.0035 46.9831 15.5228 46.6791 16.0168C46.3878 16.5108 45.9318 16.9161 45.3111 17.2328C44.7031 17.5495 43.9115 17.7078 42.9361 17.7078ZM42.9171 10.3168C42.1191 10.3168 41.4415 10.1711 40.8841 9.8798C40.3268 9.5758 39.9025 9.17047 39.6111 8.6638C39.3198 8.14447 39.1741 7.57447 39.1741 6.9538C39.1741 6.32047 39.3198 5.75047 39.6111 5.2438C39.9025 4.73714 40.3268 4.3318 40.8841 4.0278C41.4415 3.7238 42.1191 3.5718 42.9171 3.5718C43.7278 3.5718 44.4118 3.7238 44.9691 4.0278C45.5265 4.3318 45.9508 4.73714 46.2421 5.2438C46.5335 5.75047 46.6791 6.32047 46.6791 6.9538C46.6791 7.57447 46.5335 8.14447 46.2421 8.6638C45.9508 9.17047 45.5265 9.5758 44.9691 9.8798C44.4118 10.1711 43.7278 10.3168 42.9171 10.3168ZM42.9171 9.0058C43.6011 9.0058 44.1395 8.82847 44.5321 8.4738C44.9375 8.11914 45.1401 7.61247 45.1401 6.9538C45.1401 6.29514 44.9375 5.78847 44.5321 5.4338C44.1395 5.07914 43.6011 4.9018 42.9171 4.9018C42.2458 4.9018 41.7075 5.07914 41.3021 5.4338C40.8968 5.78847 40.6941 6.29514 40.6941 6.9538C40.6941 7.61247 40.8968 8.11914 41.3021 8.4738C41.7075 8.82847 42.2458 9.0058 42.9171 9.0058ZM44.4561 5.1488L43.9811 3.7998H47.8951V4.9968L44.4561 5.1488ZM49.1432 13.2998V3.7998H50.5872L50.7202 5.6238C50.9229 5.19314 51.1889 4.8258 51.5182 4.5218C51.8602 4.2178 52.2655 3.98347 52.7342 3.8188C53.2029 3.65414 53.7285 3.5718 54.3112 3.5718V5.2438H53.8172C53.3992 5.2438 53.0002 5.3008 52.6202 5.4148C52.2529 5.51614 51.9235 5.68714 51.6322 5.9278C51.3535 6.16847 51.1319 6.4978 50.9672 6.9158C50.8152 7.32114 50.7392 7.83414 50.7392 8.4548V13.2998H49.1432ZM58.6662 13.5278C57.8809 13.5278 57.2285 13.3948 56.7092 13.1288C56.2025 12.8628 55.8225 12.5081 55.5692 12.0648C55.3159 11.6088 55.1892 11.1211 55.1892 10.6018C55.1892 9.9558 55.3539 9.41114 55.6832 8.9678C56.0252 8.5118 56.5002 8.1698 57.1082 7.9418C57.7289 7.70114 58.4509 7.5808 59.2742 7.5808H61.8202C61.8202 6.98547 61.7252 6.4978 61.5352 6.1178C61.3579 5.72514 61.0919 5.42747 60.7372 5.2248C60.3825 5.02214 59.9519 4.9208 59.4452 4.9208C58.8372 4.9208 58.3052 5.07914 57.8492 5.3958C57.4059 5.6998 57.1335 6.14314 57.0322 6.7258H55.3982C55.4742 6.05447 55.7022 5.48447 56.0822 5.0158C56.4749 4.54714 56.9689 4.19247 57.5642 3.9518C58.1595 3.69847 58.7865 3.5718 59.4452 3.5718C60.3192 3.5718 61.0475 3.73647 61.6302 4.0658C62.2255 4.38247 62.6689 4.83214 62.9602 5.4148C63.2642 5.9848 63.4162 6.65614 63.4162 7.4288V13.2998H61.9912L61.8962 11.6088C61.7695 11.8748 61.6049 12.1281 61.4022 12.3688C61.2122 12.5968 60.9842 12.7995 60.7182 12.9768C60.4649 13.1415 60.1672 13.2745 59.8252 13.3758C59.4832 13.4771 59.0969 13.5278 58.6662 13.5278ZM58.9132 12.1788C59.3692 12.1788 59.7745 12.0901 60.1292 11.9128C60.4965 11.7228 60.8069 11.4695 61.0602 11.1528C61.3135 10.8361 61.5035 10.4815 61.6302 10.0888C61.7569 9.68347 61.8202 9.2718 61.8202 8.8538V8.8158H59.4072C58.7992 8.8158 58.3052 8.8918 57.9252 9.0438C57.5452 9.18314 57.2729 9.3858 57.1082 9.6518C56.9435 9.90514 56.8612 10.1965 56.8612 10.5258C56.8612 10.8551 56.9372 11.1465 57.0892 11.3998C57.2539 11.6531 57.4882 11.8495 57.7922 11.9888C58.0962 12.1155 58.4699 12.1788 58.9132 12.1788ZM65.2776 13.2998V3.7998H66.7216L66.8356 5.1678C67.1396 4.66114 67.5449 4.26847 68.0516 3.9898C68.5583 3.71114 69.1283 3.5718 69.7616 3.5718C70.2556 3.5718 70.6989 3.64147 71.0916 3.7808C71.4969 3.90747 71.8516 4.11014 72.1556 4.3888C72.4723 4.6548 72.7256 4.9968 72.9156 5.4148C73.2449 4.83214 73.6946 4.38247 74.2646 4.0658C74.8473 3.73647 75.4679 3.5718 76.1266 3.5718C76.8739 3.5718 77.5199 3.7238 78.0646 4.0278C78.6219 4.31914 79.0526 4.7688 79.3566 5.3768C79.6606 5.9848 79.8126 6.75114 79.8126 7.6758V13.2998H78.2356V7.8468C78.2356 6.88414 78.0393 6.16214 77.6466 5.6808C77.2539 5.1868 76.6903 4.9398 75.9556 4.9398C75.4616 4.9398 75.0119 5.0728 74.6066 5.3388C74.2139 5.6048 73.9036 5.9848 73.6756 6.4788C73.4603 6.9728 73.3526 7.5808 73.3526 8.3028V13.2998H71.7566V7.8468C71.7566 6.88414 71.5603 6.16214 71.1676 5.6808C70.7749 5.1868 70.2113 4.9398 69.4766 4.9398C68.9953 4.9398 68.5519 5.0728 68.1466 5.3388C67.7539 5.6048 67.4436 5.9848 67.2156 6.4788C66.9876 6.9728 66.8736 7.5808 66.8736 8.3028V13.2998H65.2776Z" fill="url(#paint0_linear_839_2099)"/>
<defs>
<linearGradient id="paint0_linear_839_2099" x1="-1.40601" y1="6.7998" x2="81.594" y2="6.7998" gradientUnits="userSpaceOnUse">
<stop stop-color="#4C66C7"/>
<stop offset="0.350962" stop-color="#F04D5A"/>
<stop offset="0.668269" stop-color="#FAD85C"/>
<stop offset="1" stop-color="#C92AAA"/>
</linearGradient>
</defs>
</svg>
