<svg width="66" height="14" viewBox="0 0 66 14" fill="none" xmlns="http://www.w3.org/2000/svg">
<path d="M-5.84126e-06 13.7373V0.437304H1.59599V12.4643H7.78999V13.7373H-5.84126e-06ZM9.50697 13.7373V4.2373H11.103V13.7373H9.50697ZM10.305 2.1663C9.9883 2.1663 9.7223 2.06497 9.50697 1.8623C9.3043 1.64697 9.20297 1.38097 9.20297 1.0643C9.20297 0.747637 9.3043 0.494304 9.50697 0.304304C9.7223 0.101637 9.9883 0.000303745 10.305 0.000303745C10.609 0.000303745 10.8686 0.101637 11.084 0.304304C11.2993 0.494304 11.407 0.747637 11.407 1.0643C11.407 1.38097 11.2993 1.64697 11.084 1.8623C10.8686 2.06497 10.609 2.1663 10.305 2.1663ZM13.3119 13.7373V4.2373H14.7559L14.8509 5.9093C15.1549 5.32664 15.5919 4.8643 16.1619 4.5223C16.7319 4.1803 17.3779 4.0093 18.0999 4.0093C18.8472 4.0093 19.4932 4.1613 20.0379 4.4653C20.5825 4.75664 21.0069 5.2063 21.3109 5.8143C21.6149 6.4223 21.7669 7.18864 21.7669 8.1133V13.7373H20.1709V8.2843C20.1709 7.32164 19.9555 6.59964 19.5249 6.1183C19.1069 5.6243 18.5115 5.3773 17.7389 5.3773C17.1942 5.3773 16.7065 5.5103 16.2759 5.7763C15.8579 6.0423 15.5222 6.4223 15.2689 6.9163C15.0282 7.4103 14.9079 8.0183 14.9079 8.7403V13.7373H13.3119ZM29.5425 13.7373L24.9635 8.5313L29.1055 4.2373H31.0625L26.3125 9.1013L26.3315 7.9613L31.5755 13.7373H29.5425ZM23.6335 13.7373V0.0573041H25.2295V13.7373H23.6335ZM36.1882 13.9653C35.2888 13.9653 34.4908 13.7626 33.7942 13.3573C33.0975 12.9393 32.5465 12.3566 32.1412 11.6093C31.7485 10.862 31.5522 9.98797 31.5522 8.9873C31.5522 7.98664 31.7485 7.11897 32.1412 6.3843C32.5338 5.63697 33.0785 5.0543 33.7752 4.6363C34.4845 4.2183 35.3015 4.0093 36.2262 4.0093C37.1508 4.0093 37.9425 4.2183 38.6012 4.6363C39.2598 5.0543 39.7602 5.59897 40.1022 6.2703C40.4568 6.94164 40.6342 7.66997 40.6342 8.4553C40.6342 8.58197 40.6342 8.7213 40.6342 8.8733C40.6342 9.01264 40.6278 9.17097 40.6152 9.3483H32.7492V8.1133H39.0572C39.0318 7.25197 38.7468 6.58064 38.2022 6.0993C37.6702 5.6053 36.9988 5.3583 36.1882 5.3583C35.6435 5.3583 35.1368 5.48497 34.6682 5.7383C34.1995 5.97897 33.8195 6.33364 33.5282 6.8023C33.2495 7.2583 33.1102 7.84097 33.1102 8.5503V9.0823C33.1102 9.86764 33.2558 10.5263 33.5472 11.0583C33.8385 11.5776 34.2185 11.9703 34.6872 12.2363C35.1558 12.4896 35.6562 12.6163 36.1882 12.6163C36.8468 12.6163 37.3915 12.4706 37.8222 12.1793C38.2655 11.8753 38.5885 11.4636 38.7912 10.9443H40.3682C40.2035 11.5143 39.9312 12.0273 39.5512 12.4833C39.1838 12.9393 38.7152 13.3003 38.1452 13.5663C37.5878 13.8323 36.9355 13.9653 36.1882 13.9653ZM46.4546 13.9653C45.5299 13.9653 44.7129 13.75 44.0036 13.3193C43.3069 12.876 42.7622 12.2806 42.3696 11.5333C41.9896 10.786 41.7996 9.93097 41.7996 8.9683C41.7996 8.00564 41.9896 7.15697 42.3696 6.4223C42.7622 5.67497 43.3132 5.08597 44.0226 4.6553C44.7319 4.22464 45.5489 4.0093 46.4736 4.0093C47.2462 4.0093 47.9302 4.16764 48.5256 4.4843C49.1336 4.80097 49.5959 5.2443 49.9126 5.8143V0.0573041H51.5086V13.7373H50.0646L49.9126 12.1793C49.7099 12.4833 49.4502 12.7746 49.1336 13.0533C48.8169 13.3193 48.4369 13.541 47.9936 13.7183C47.5502 13.883 47.0372 13.9653 46.4546 13.9653ZM46.6446 12.5783C47.2779 12.5783 47.8352 12.4326 48.3166 12.1413C48.7979 11.8373 49.1716 11.4193 49.4376 10.8873C49.7162 10.3426 49.8556 9.7093 49.8556 8.9873C49.8556 8.2653 49.7162 7.6383 49.4376 7.1063C49.1716 6.56164 48.7979 6.14364 48.3166 5.8523C47.8352 5.5483 47.2779 5.3963 46.6446 5.3963C46.0239 5.3963 45.4666 5.5483 44.9726 5.8523C44.4912 6.14364 44.1112 6.56164 43.8326 7.1063C43.5666 7.6383 43.4336 8.2653 43.4336 8.9873C43.4336 9.7093 43.5666 10.3426 43.8326 10.8873C44.1112 11.4193 44.4912 11.8373 44.9726 12.1413C45.4666 12.4326 46.0239 12.5783 46.6446 12.5783ZM53.6542 13.7373V0.437304H55.2502V13.7373H53.6542ZM57.4238 13.7373V4.2373H58.8678L58.9628 5.9093C59.2668 5.32664 59.7038 4.8643 60.2738 4.5223C60.8438 4.1803 61.4898 4.0093 62.2118 4.0093C62.9591 4.0093 63.6051 4.1613 64.1498 4.4653C64.6944 4.75664 65.1188 5.2063 65.4228 5.8143C65.7268 6.4223 65.8788 7.18864 65.8788 8.1133V13.7373H64.2828V8.2843C64.2828 7.32164 64.0674 6.59964 63.6368 6.1183C63.2188 5.6243 62.6234 5.3773 61.8508 5.3773C61.3061 5.3773 60.8184 5.5103 60.3878 5.7763C59.9698 6.0423 59.6341 6.4223 59.3808 6.9163C59.1401 7.4103 59.0198 8.0183 59.0198 8.7403V13.7373H57.4238Z" fill="#2671AD"/>
</svg>
