<svg width="68" height="14" viewBox="0 0 68 14" fill="none" xmlns="http://www.w3.org/2000/svg">
<path d="M4.332 13.6797V8.62569L-4.85592e-06 0.379687H1.805L5.415 7.65669H4.864L8.455 0.379687H10.241L5.928 8.62569V13.6797H4.332ZM14.0066 13.9077C13.1199 13.9077 12.3219 13.705 11.6126 13.2997C10.9032 12.8817 10.3396 12.299 9.92156 11.5517C9.51622 10.8044 9.31356 9.93035 9.31356 8.92969C9.31356 7.91635 9.52256 7.04235 9.94056 6.30769C10.3586 5.56035 10.9222 4.98402 11.6316 4.57869C12.3536 4.16069 13.1579 3.95169 14.0446 3.95169C14.9439 3.95169 15.7482 4.16069 16.4576 4.57869C17.1669 4.98402 17.7242 5.56035 18.1296 6.30769C18.5349 7.04235 18.7376 7.91635 18.7376 8.92969C18.7376 9.94302 18.5286 10.8234 18.1106 11.5707C17.7052 12.3054 17.1416 12.8817 16.4196 13.2997C15.7102 13.705 14.9059 13.9077 14.0066 13.9077ZM14.0066 12.5397C14.5639 12.5397 15.0769 12.4067 15.5456 12.1407C16.0142 11.8747 16.3879 11.4757 16.6666 10.9437C16.9579 10.399 17.1036 9.72769 17.1036 8.92969C17.1036 8.11902 16.9642 7.45402 16.6856 6.93469C16.4069 6.40269 16.0332 6.00369 15.5646 5.73769C15.0959 5.45902 14.5892 5.31969 14.0446 5.31969C13.5126 5.31969 13.0059 5.45902 12.5246 5.73769C12.0559 6.00369 11.6759 6.40269 11.3846 6.93469C11.0932 7.46669 10.9476 8.13169 10.9476 8.92969C10.9476 9.72769 11.0932 10.399 11.3846 10.9437C11.6759 11.4757 12.0496 11.8747 12.5056 12.1407C12.9742 12.4067 13.4746 12.5397 14.0066 12.5397ZM23.8633 13.9077C23.1286 13.9077 22.4826 13.762 21.9253 13.4707C21.3806 13.1667 20.9563 12.7107 20.6523 12.1027C20.3609 11.4947 20.2153 10.7284 20.2153 9.80369V4.17969H21.8113V9.63269C21.8113 10.5954 22.0203 11.3237 22.4383 11.8177C22.8563 12.299 23.4516 12.5397 24.2243 12.5397C24.7689 12.5397 25.2503 12.413 25.6683 12.1597C26.0989 11.8937 26.4346 11.5137 26.6753 11.0197C26.9286 10.513 27.0553 9.89869 27.0553 9.17669V4.17969H28.6513V13.6797H27.2073L27.1123 12.0077C26.8209 12.5904 26.3839 13.0527 25.8013 13.3947C25.2313 13.7367 24.5853 13.9077 23.8633 13.9077ZM34.4699 13.6797C33.8999 13.6797 33.4059 13.591 32.9879 13.4137C32.5699 13.2364 32.2469 12.9387 32.0189 12.5207C31.8035 12.09 31.6959 11.5137 31.6959 10.7917V5.52869H30.0619V4.17969H31.6959L31.9049 1.89969H33.2919V4.17969H36.0849V5.52869H33.2919V10.7917C33.2919 11.387 33.4122 11.7924 33.6529 12.0077C33.8935 12.2104 34.3179 12.3117 34.9259 12.3117H35.9329V13.6797H34.4699ZM40.9996 13.9077C40.265 13.9077 39.619 13.762 39.0616 13.4707C38.517 13.1667 38.0926 12.7107 37.7886 12.1027C37.4973 11.4947 37.3516 10.7284 37.3516 9.80369V4.17969H38.9476V9.63269C38.9476 10.5954 39.1566 11.3237 39.5746 11.8177C39.9926 12.299 40.588 12.5397 41.3606 12.5397C41.9053 12.5397 42.3866 12.413 42.8046 12.1597C43.2353 11.8937 43.571 11.5137 43.8116 11.0197C44.065 10.513 44.1916 9.89869 44.1916 9.17669V4.17969H45.7876V13.6797H44.3436L44.2486 12.0077C43.9573 12.5904 43.5203 13.0527 42.9376 13.3947C42.3676 13.7367 41.7216 13.9077 40.9996 13.9077ZM52.8982 13.9077C52.3662 13.9077 51.8786 13.8317 51.4352 13.6797C51.0046 13.5277 50.6182 13.3187 50.2762 13.0527C49.9469 12.7867 49.6746 12.47 49.4592 12.1027L49.3072 13.6797H47.8632V-0.000313044H49.4592V5.73769C49.7632 5.26902 50.2002 4.85735 50.7702 4.50269C51.3402 4.13535 52.0559 3.95169 52.9172 3.95169C53.8419 3.95169 54.6526 4.16702 55.3492 4.59769C56.0459 5.02835 56.5842 5.62369 56.9642 6.38369C57.3569 7.13102 57.5532 7.98602 57.5532 8.94869C57.5532 9.89869 57.3569 10.7474 56.9642 11.4947C56.5842 12.242 56.0459 12.831 55.3492 13.2617C54.6526 13.6924 53.8356 13.9077 52.8982 13.9077ZM52.7272 12.5207C53.3479 12.5207 53.8989 12.375 54.3802 12.0837C54.8742 11.7797 55.2542 11.3617 55.5202 10.8297C55.7989 10.285 55.9382 9.65169 55.9382 8.92969C55.9382 8.20769 55.7989 7.58069 55.5202 7.04869C55.2542 6.50402 54.8742 6.08602 54.3802 5.79469C53.8989 5.49069 53.3479 5.33869 52.7272 5.33869C52.0939 5.33869 51.5302 5.49069 51.0362 5.79469C50.5549 6.08602 50.1749 6.50402 49.8962 7.04869C49.6302 7.58069 49.4972 8.20769 49.4972 8.92969C49.4972 9.65169 49.6302 10.285 49.8962 10.8297C50.1749 11.3617 50.5549 11.7797 51.0362 12.0837C51.5302 12.375 52.0939 12.5207 52.7272 12.5207ZM63.4423 13.9077C62.543 13.9077 61.745 13.705 61.0483 13.2997C60.3517 12.8817 59.8007 12.299 59.3953 11.5517C59.0027 10.8044 58.8063 9.93035 58.8063 8.92969C58.8063 7.92902 59.0027 7.06135 59.3953 6.32669C59.788 5.57935 60.3327 4.99669 61.0293 4.57869C61.7387 4.16069 62.5557 3.95169 63.4803 3.95169C64.405 3.95169 65.1967 4.16069 65.8553 4.57869C66.514 4.99669 67.0143 5.54135 67.3563 6.21269C67.711 6.88402 67.8883 7.61235 67.8883 8.39769C67.8883 8.52435 67.8883 8.66369 67.8883 8.81569C67.8883 8.95502 67.882 9.11335 67.8693 9.29069H60.0033V8.05569H66.3113C66.286 7.19435 66.001 6.52302 65.4563 6.04169C64.9243 5.54769 64.253 5.30069 63.4423 5.30069C62.8977 5.30069 62.391 5.42735 61.9223 5.68069C61.4537 5.92135 61.0737 6.27602 60.7823 6.74469C60.5037 7.20069 60.3643 7.78335 60.3643 8.49269V9.02469C60.3643 9.81002 60.51 10.4687 60.8013 11.0007C61.0927 11.52 61.4727 11.9127 61.9413 12.1787C62.41 12.432 62.9103 12.5587 63.4423 12.5587C64.101 12.5587 64.6457 12.413 65.0763 12.1217C65.5197 11.8177 65.8427 11.406 66.0453 10.8867H67.6223C67.4577 11.4567 67.1853 11.9697 66.8053 12.4257C66.438 12.8817 65.9693 13.2427 65.3993 13.5087C64.842 13.7747 64.1897 13.9077 63.4423 13.9077Z" fill="#D92935"/>
</svg>
