<svg width="65" height="65" viewBox="0 0 65 65" fill="none" xmlns="http://www.w3.org/2000/svg">
<path d="M32.5 64.5C50.1736 64.5 64.5 50.1736 64.5 32.5C64.5 14.8264 50.1736 0.5 32.5 0.5C14.8264 0.5 0.5 14.8264 0.5 32.5C0.5 50.1736 14.8264 64.5 32.5 64.5Z" stroke="#51463E" stroke-linecap="round" stroke-linejoin="round"/>
<path d="M24 2C17.7601 20.693 17.7601 44.307 24 63M41.5 2C47.7399 20.693 47.7399 44.307 41.5 63" stroke="#51463E" stroke-linecap="round" stroke-linejoin="round"/>
<path d="M2 42.0995C20.693 48.3394 44.307 47.7398 63 41.4999M2 23.5002C20.693 17.2603 44.307 16.7598 63 22.9997" stroke="#51463E" stroke-linecap="round" stroke-linejoin="round"/>
</svg>
