<svg width="1726" height="218" viewBox="0 0 1726 218" fill="none" xmlns="http://www.w3.org/2000/svg">
<g clip-path="url(#clip0_839_2081)">
<path d="M128.022 213.778V116.264C128.022 97.6507 123.89 83.3504 115.81 73.7261C107.593 64.0109 95.6984 59.108 80.4448 59.108C69.9125 59.108 60.379 61.741 52.162 66.871C43.945 72.0463 37.3623 79.537 32.5956 89.2067C27.8742 98.7856 25.4681 110.771 25.4681 124.753V213.733H0V42.1746H22.4265L24.9234 70.9114H28.1466L29.8263 69.8672C35.7734 60.0613 43.6726 52.2075 53.3878 46.4874C63.0575 40.8127 74.8155 37.9072 88.2986 37.9072C101.782 37.9072 112.904 40.6311 122.71 45.988C132.425 51.2996 140.097 59.562 145.409 70.5482C150.811 81.6707 153.535 95.971 153.535 113.041V213.733H128.067L128.022 213.778Z" fill="url(#paint0_linear_839_2081)"/>
<path d="M267.71 218C251.412 218 236.749 214.232 224.128 206.786C211.507 199.341 201.474 188.763 194.256 175.326C187.038 161.843 183.315 145.908 183.315 127.976C183.315 110.044 186.947 93.746 194.075 80.399C201.202 67.0975 211.235 56.6106 223.946 49.1654C236.703 41.7202 251.639 37.9521 268.436 37.9521C285.233 37.9521 299.715 41.7202 311.609 49.1654C323.504 56.6106 332.81 66.5073 339.211 78.4923C345.612 90.5227 348.881 103.824 348.881 118.079V125.706C348.881 127.794 348.79 130.11 348.654 132.561H208.239L208.33 134.831C208.92 147.769 211.644 158.71 216.501 167.381C222.13 177.414 229.621 184.995 238.837 190.035C247.962 195.028 257.677 197.571 267.71 197.571C280.376 197.571 291.18 194.574 299.761 188.673C307.978 183.043 314.152 175.28 318.101 165.611H343.161C340.119 175.053 335.398 183.633 329.178 191.124C322.323 199.341 313.698 205.969 303.483 210.781C293.314 215.594 281.284 218.045 267.71 218.045V218ZM267.71 57.0192C257.223 57.0192 247.372 59.3799 238.383 64.0105C229.303 68.641 221.903 75.7231 216.41 85.0296C212.143 92.2932 209.464 101.191 208.557 111.451L208.33 113.812H323.867L323.776 111.542C323.05 94.4723 317.375 80.9892 306.933 71.4103C296.537 61.8768 283.327 57.0192 267.71 57.0192Z" fill="url(#paint1_linear_839_2081)"/>
<path d="M553.533 213.778V42.1741H575.96L578.82 79.4003H582.225L583.859 78.1292C588.944 66.8251 594.346 58.1995 599.93 52.5248C605.423 46.8955 611.96 43.0367 619.36 41.0392C626.487 39.1325 634.977 38.0883 644.647 37.9521V64.8276H639.017C629.847 64.8276 621.448 66.0534 614.048 68.4594C606.558 70.9109 600.157 74.5881 594.981 79.4003C589.761 84.2125 585.766 90.6135 583.087 98.3766C580.409 106.003 579.047 115.128 579.047 125.524V213.778H553.579H553.533Z" fill="url(#paint2_linear_839_2081)"/>
<path d="M740.438 218C724.367 218 709.658 214.277 696.81 206.923C684.008 199.614 673.703 189.081 666.258 175.643C658.812 162.206 654.999 146.135 654.999 127.93C654.999 109.726 658.858 93.6552 666.439 80.2174C674.021 66.8251 684.417 56.2928 697.355 48.9384C710.293 41.5839 725.048 37.8613 741.164 37.8613C757.28 37.8613 771.898 41.5839 784.746 48.9384C797.548 56.2928 807.853 66.7797 815.298 80.2174C822.789 93.6552 826.557 109.681 826.557 127.93C826.557 146.18 822.698 162.206 815.117 175.643C807.535 189.081 797.139 199.614 784.201 206.923C771.263 214.277 756.508 218 740.392 218H740.438ZM741.164 57.3824C730.904 57.3824 721.053 59.97 711.928 65.1C702.757 70.2299 695.267 78.1745 689.637 88.6614C684.053 99.1029 681.239 112.314 681.239 127.976C681.239 143.638 684.053 156.849 689.637 167.109C695.221 177.459 702.621 185.359 711.519 190.625C720.417 195.891 730.132 198.569 740.483 198.569C750.834 198.569 760.912 195.891 769.946 190.625C778.98 185.359 786.425 177.459 792.055 167.109C797.639 156.803 800.453 143.638 800.453 127.976C800.453 112.314 797.684 99.1029 792.236 88.6614C786.743 78.1745 779.343 70.2299 770.264 65.1C761.23 59.97 751.469 57.3824 741.209 57.3824H741.164Z" fill="url(#paint3_linear_839_2081)"/>
<path d="M986.944 213.776L924.658 42.1729H951.261L1002.33 192.893H1005.42L1006.96 191.441L1057.54 42.1729H1083.41L1021.13 213.776H986.944Z" fill="url(#paint4_linear_839_2081)"/>
<path d="M1155.83 218C1142.07 218 1130.41 215.594 1121.19 210.781C1112.02 206.015 1105.16 199.659 1100.81 191.805C1096.4 183.906 1094.18 175.19 1094.18 165.883C1094.18 154.352 1097.22 144.546 1103.17 136.692C1109.11 128.793 1117.74 122.619 1128.82 118.442C1139.98 114.175 1153.38 112.041 1168.63 112.041H1218.3V109.862C1218.3 98.2403 1216.43 88.389 1212.76 80.5806C1209.03 72.636 1203.59 66.6435 1196.6 62.7393C1189.69 58.9259 1181.34 56.9738 1171.81 56.9738C1159.82 56.9738 1149.25 60.1062 1140.44 66.2349C1131.9 72.1366 1126.46 81.08 1124.23 92.7926H1098.04C1099.63 81.534 1103.67 71.8642 1110.02 64.0558C1116.83 55.6118 1125.68 49.12 1136.31 44.6256C1146.98 40.1312 1158.92 37.8613 1171.85 37.8613C1188.2 37.8613 1201.82 40.8122 1212.48 46.6685C1223.02 52.434 1230.96 60.6056 1236.05 70.9109C1241.18 81.307 1243.81 93.7006 1243.81 107.728V213.732H1222.79L1220.29 183.225H1217.02L1215.34 184.314C1212.35 189.581 1208.76 194.302 1204.68 198.388C1200.59 202.474 1196 206.015 1191.1 208.875C1186.2 211.689 1180.75 213.959 1174.8 215.548C1168.86 217.137 1162.46 217.954 1155.87 217.954L1155.83 218ZM1171.08 130.791C1159.32 130.791 1149.61 132.198 1142.3 135.013C1134.81 137.873 1129.32 141.913 1126 147.043C1122.73 152.127 1121.05 157.984 1121.05 164.521C1121.05 171.058 1122.64 176.869 1125.82 181.818C1129 186.766 1133.67 190.625 1139.67 193.258C1145.61 195.845 1152.7 197.162 1160.78 197.162C1170.08 197.162 1178.35 195.346 1185.34 191.805C1192.33 188.264 1198.32 183.361 1203.22 177.232C1208.13 171.149 1211.85 164.158 1214.39 156.531C1216.93 148.904 1218.2 140.96 1218.2 132.97V130.791H1171.04H1171.08Z" fill="url(#paint5_linear_839_2081)"/>
<path d="M1407.28 213.778V116.264C1407.28 97.6507 1403.15 83.3504 1395.07 73.7261C1386.86 64.0109 1374.96 59.108 1359.71 59.108C1349.18 59.108 1339.64 61.741 1331.43 66.871C1323.21 72.0009 1316.63 79.537 1311.86 89.2067C1307.14 98.7856 1304.73 110.771 1304.73 124.753V213.733H1279.26V42.1746H1301.74L1304.19 70.9114H1307.41L1309.09 69.8672C1314.99 60.0613 1322.94 52.2075 1332.65 46.4874C1342.32 40.8127 1354.03 37.9072 1367.52 37.9072C1381 37.9072 1392.12 40.6311 1401.93 45.988C1411.64 51.2996 1419.27 59.562 1424.58 70.5482C1429.98 81.6707 1432.71 95.971 1432.71 113.041V213.733H1407.24L1407.28 213.778Z" fill="url(#paint6_linear_839_2081)"/>
<path d="M1530.5 213.778C1520.19 213.778 1511.16 212.144 1503.67 208.966C1496.4 205.879 1490.73 200.522 1486.82 193.122C1482.87 185.586 1480.88 175.099 1480.88 162.025V60.1974H1450.37V42.1745H1480.88V0H1506.34V42.1745H1555.28V60.1974H1506.34V162.025C1506.34 174.827 1508.8 183.271 1513.79 187.72C1518.74 192.169 1526.95 194.302 1538.99 194.302H1555.28V213.733H1530.5V213.778Z" fill="url(#paint7_linear_839_2081)"/>
<path d="M1637.23 218C1623.47 218 1611.8 215.594 1602.59 210.781C1593.46 206.06 1586.61 199.659 1582.2 191.805C1577.8 183.906 1575.58 175.19 1575.58 165.883C1575.58 154.352 1578.62 144.546 1584.56 136.692C1590.51 128.793 1599.14 122.619 1610.21 118.442C1621.38 114.175 1634.77 112.041 1650.03 112.041H1699.69V109.862C1699.69 98.2403 1697.83 88.389 1694.15 80.5806C1690.43 72.636 1684.98 66.6435 1677.99 62.7393C1671.09 58.9259 1662.74 56.9738 1653.21 56.9738C1641.22 56.9738 1630.69 60.1062 1621.84 66.2349C1613.3 72.1366 1607.85 81.08 1605.63 92.7926H1579.43C1581.02 81.534 1585.06 71.8642 1591.42 64.0558C1598.23 55.6118 1607.08 49.12 1617.7 44.6256C1628.37 40.1312 1640.31 37.8613 1653.21 37.8613C1669.55 37.8613 1683.21 40.8122 1693.84 46.6685C1704.41 52.434 1712.31 60.6056 1717.4 70.9109C1722.57 81.307 1725.16 93.7006 1725.16 107.728V213.732H1704.14L1701.64 183.225H1698.38L1696.7 184.314C1693.75 189.581 1690.16 194.302 1686.03 198.388C1681.9 202.474 1677.36 206.015 1672.45 208.875C1667.55 211.735 1662.06 213.959 1656.11 215.548C1650.16 217.137 1643.81 217.954 1637.18 217.954L1637.23 218ZM1652.43 130.791C1640.68 130.791 1630.96 132.198 1623.65 135.013C1616.16 137.873 1610.67 141.913 1607.35 147.043C1604.08 152.127 1602.41 157.984 1602.41 164.521C1602.41 171.058 1603.99 176.869 1607.17 181.818C1610.35 186.766 1615.03 190.625 1621.06 193.258C1626.97 195.845 1634.05 197.162 1642.13 197.162C1651.43 197.162 1659.7 195.346 1666.69 191.805C1673.68 188.264 1679.67 183.361 1684.58 177.232C1689.43 171.195 1693.2 164.203 1695.74 156.531C1698.29 148.904 1699.56 140.96 1699.56 132.97V130.791H1652.39H1652.43Z" fill="url(#paint8_linear_839_2081)"/>
<path d="M450.985 218.002C409.99 218.002 376.623 184.634 376.623 143.64V42.2217H402.091V147.681C402.091 174.647 424.018 196.574 450.985 196.574C477.951 196.574 499.878 174.647 499.878 147.681V42.2217H525.346V143.64C525.346 184.634 491.979 218.002 450.985 218.002Z" fill="url(#paint9_linear_839_2081)"/>
</g>
<defs>
<linearGradient id="paint0_linear_839_2081" x1="3.13244" y1="125.843" x2="1696.51" y2="125.843" gradientUnits="userSpaceOnUse">
<stop stop-color="#7F6157"/>
<stop offset="0.32" stop-color="#C9B6AC"/>
<stop offset="0.68" stop-color="#BFA373"/>
<stop offset="1" stop-color="#7F6157"/>
</linearGradient>
<linearGradient id="paint1_linear_839_2081" x1="3.13173" y1="127.976" x2="1696.51" y2="127.976" gradientUnits="userSpaceOnUse">
<stop stop-color="#7F6157"/>
<stop offset="0.32" stop-color="#C9B6AC"/>
<stop offset="0.68" stop-color="#BFA373"/>
<stop offset="1" stop-color="#7F6157"/>
</linearGradient>
<linearGradient id="paint2_linear_839_2081" x1="3.13107" y1="125.842" x2="1696.51" y2="125.842" gradientUnits="userSpaceOnUse">
<stop stop-color="#7F6157"/>
<stop offset="0.32" stop-color="#C9B6AC"/>
<stop offset="0.68" stop-color="#BFA373"/>
<stop offset="1" stop-color="#7F6157"/>
</linearGradient>
<linearGradient id="paint3_linear_839_2081" x1="3.13242" y1="127.976" x2="1696.51" y2="127.976" gradientUnits="userSpaceOnUse">
<stop stop-color="#7F6157"/>
<stop offset="0.32" stop-color="#C9B6AC"/>
<stop offset="0.68" stop-color="#BFA373"/>
<stop offset="1" stop-color="#7F6157"/>
</linearGradient>
<linearGradient id="paint4_linear_839_2081" x1="3.12901" y1="127.975" x2="1696.51" y2="127.975" gradientUnits="userSpaceOnUse">
<stop stop-color="#7F6157"/>
<stop offset="0.32" stop-color="#C9B6AC"/>
<stop offset="0.68" stop-color="#BFA373"/>
<stop offset="1" stop-color="#7F6157"/>
</linearGradient>
<linearGradient id="paint5_linear_839_2081" x1="3.13359" y1="127.976" x2="1696.52" y2="127.976" gradientUnits="userSpaceOnUse">
<stop stop-color="#7F6157"/>
<stop offset="0.32" stop-color="#C9B6AC"/>
<stop offset="0.68" stop-color="#BFA373"/>
<stop offset="1" stop-color="#7F6157"/>
</linearGradient>
<linearGradient id="paint6_linear_839_2081" x1="3.13315" y1="7.44262e-05" x2="1696.51" y2="7.44262e-05" gradientUnits="userSpaceOnUse">
<stop stop-color="#7F6157"/>
<stop offset="0.32" stop-color="#C9B6AC"/>
<stop offset="0.68" stop-color="#BFA373"/>
<stop offset="1" stop-color="#7F6157"/>
</linearGradient>
<linearGradient id="paint7_linear_839_2081" x1="3.13509" y1="106.866" x2="1696.52" y2="106.866" gradientUnits="userSpaceOnUse">
<stop stop-color="#7F6157"/>
<stop offset="0.32" stop-color="#C9B6AC"/>
<stop offset="0.68" stop-color="#BFA373"/>
<stop offset="1" stop-color="#7F6157"/>
</linearGradient>
<linearGradient id="paint8_linear_839_2081" x1="3.13287" y1="127.976" x2="1696.51" y2="127.976" gradientUnits="userSpaceOnUse">
<stop stop-color="#7F6157"/>
<stop offset="0.32" stop-color="#C9B6AC"/>
<stop offset="0.68" stop-color="#BFA373"/>
<stop offset="1" stop-color="#7F6157"/>
</linearGradient>
<linearGradient id="paint9_linear_839_2081" x1="3.13581" y1="130.112" x2="1696.52" y2="130.112" gradientUnits="userSpaceOnUse">
<stop stop-color="#7F6157"/>
<stop offset="0.32" stop-color="#C9B6AC"/>
<stop offset="0.68" stop-color="#BFA373"/>
<stop offset="1" stop-color="#7F6157"/>
</linearGradient>
<clipPath id="clip0_839_2081">
<rect width="1725.11" height="218" fill="white"/>
</clipPath>
</defs>
</svg>
