<svg width="30" height="30" viewBox="0 0 30 30" fill="none" xmlns="http://www.w3.org/2000/svg">
<circle cx="15" cy="15" r="14.5" stroke="#FFF8F0"/>
<path d="M20.9263 18.798C20.9263 19.014 20.8826 19.236 20.7896 19.452C20.6965 19.668 20.5762 19.872 20.4175 20.064C20.1494 20.388 19.854 20.622 19.5202 20.772C19.1919 20.922 18.8363 21 18.4533 21C17.8952 21 17.2988 20.856 16.6696 20.562C16.0404 20.268 15.4112 19.872 14.7875 19.374C14.1582 18.87 13.5619 18.312 12.9928 17.694C12.4293 17.07 11.9205 16.416 11.4663 15.732C11.0177 15.048 10.6566 14.364 10.3939 13.686C10.1313 13.002 10 12.348 10 11.724C10 11.316 10.0657 10.926 10.197 10.566C10.3283 10.2 10.5362 9.864 10.8262 9.564C11.1763 9.186 11.5593 9 11.9642 9C12.1174 9 12.2706 9.036 12.4074 9.108C12.5497 9.18 12.6755 9.288 12.774 9.444L14.0434 11.406C14.1418 11.556 14.213 11.694 14.2622 11.826C14.3114 11.952 14.3388 12.078 14.3388 12.192C14.3388 12.336 14.3005 12.48 14.2239 12.618C14.1528 12.756 14.0488 12.9 13.9175 13.044L13.5017 13.518C13.4415 13.584 13.4141 13.662 13.4141 13.758C13.4141 13.806 13.4196 13.848 13.4306 13.896C13.447 13.944 13.4634 13.98 13.4743 14.016C13.5728 14.214 13.7424 14.472 13.9832 14.784C14.2294 15.096 14.492 15.414 14.7765 15.732C15.072 16.05 15.3565 16.344 15.6465 16.614C15.931 16.878 16.1662 17.058 16.3523 17.166C16.3796 17.178 16.4125 17.196 16.4508 17.214C16.4945 17.232 16.5383 17.238 16.5875 17.238C16.6806 17.238 16.7517 17.202 16.8119 17.136L17.2277 16.686C17.3645 16.536 17.4958 16.422 17.6216 16.35C17.7475 16.266 17.8733 16.224 18.0101 16.224C18.1141 16.224 18.2235 16.248 18.3439 16.302C18.4642 16.356 18.5901 16.434 18.7269 16.536L20.5379 17.946C20.6801 18.054 20.7786 18.18 20.8388 18.33C20.8935 18.48 20.9263 18.63 20.9263 18.798Z" stroke="#E2D3C3" stroke-miterlimit="10"/>
</svg>
